<svg width="65" height="32" viewBox="0 0 65 32" fill="none" xmlns="http://www.w3.org/2000/svg">
<g clip-path="url(#clip0_152_1307)">
<path d="M10.5279 0.416826C10.5307 1.07208 11.0795 1.71984 10.7061 2.35778L10.3496 2.03506L10.2029 2.44437L10.768 2.47035C10.9277 2.83579 10.66 3.13542 10.6285 3.3652C10.5751 3.75373 11.0261 3.98698 10.087 4.03315L9.98076 4.48232C10.2585 4.34144 10.5914 4.32643 10.8681 4.23811C10.9878 4.2 11.0992 4.00026 11.2695 3.9633C11.5394 3.90499 11.7885 4.22829 11.8617 3.68734L12.181 3.7699C12.2226 3.39406 12.4937 3.29362 12.8018 3.17006C12.9373 3.13832 13.2084 3.75085 13.1161 3.14062C13.6981 3.0217 14.3948 2.7417 14.9802 2.70994C15.2343 2.69608 15.4036 2.86062 15.4845 2.8589C15.6516 2.85485 15.7258 2.65336 15.8557 2.67819C15.9856 2.70301 16.1324 2.90854 16.2735 2.92298C16.441 2.94029 16.6175 2.78037 16.8954 2.82541C17.2141 2.87736 18.6857 3.7647 18.9681 4.00603C19.261 4.256 19.2716 4.79869 19.681 4.84314L19.4876 5.25072C19.6153 5.44298 19.885 5.3177 19.9903 5.53419C20.0252 5.60635 20.2916 6.31934 20.2973 6.36322C20.3141 6.5035 20.1319 6.66227 20.1337 6.71654C20.146 7.09814 20.6149 6.4429 20.6988 6.79968C20.7263 6.91746 20.2269 7.30368 20.2973 7.63333C21.1997 7.36949 20.5537 8.16792 20.5649 8.65346C20.574 9.04891 20.7668 9.17074 20.7954 9.34162C20.8511 9.67416 20.3788 11.5822 20.1849 11.9055C20.0802 12.0798 19.9082 12.0764 19.8716 12.111C19.7485 12.2305 20.2737 12.167 20.1145 12.4401L19.6714 12.585C20.0639 13.1923 19.3919 13.5549 19.2497 14.1114L19.1765 13.8257L18.9511 13.7824C19.0421 14.4295 18.3545 15.6823 17.9193 16.1187C17.7298 16.3086 17.4617 16.4224 17.5004 16.0669L17.3908 16.0731C17.4559 16.647 16.7711 16.6158 16.6052 17.159L16.473 16.819C16.2257 16.819 16.2037 17.1216 16.2183 17.2989L15.7173 17.2006L15.6083 17.4512L15.4834 17.2261C15.3041 17.3334 15.3175 17.6411 15.2366 17.7434C14.9785 18.069 14.6164 17.9576 14.5849 17.9824C14.5449 18.0136 14.5517 18.2064 14.4741 18.267C14.2481 18.4442 13.7633 18.2998 13.4794 18.3998L13.3034 18.8634L12.307 19.0227L12.194 18.8067C11.9139 19.1792 11.4798 18.8414 11.1998 19.212L11.125 18.8698C10.7438 18.8818 10.4818 19.2589 10.0837 19.0504C9.95826 18.9846 10.0252 18.8005 9.96557 18.7416C9.89247 18.6699 9.69399 18.7051 9.5832 18.6226C9.23176 18.36 9.61076 18.219 8.73527 18.4344C8.91914 18.7058 9.1345 19.1538 8.95906 19.4643C8.91351 19.5458 8.73863 19.5648 8.71221 19.6093C8.69927 19.6306 8.80442 19.9371 8.77575 20.1104C8.5126 21.6877 8.13079 23.2274 7.61178 24.733L7.17544 24.7699C7.20805 25.1318 7.31264 25.3022 6.86618 25.2531L7.32389 25.3981C6.69468 25.764 7.29464 26.5371 6.39216 26.8419L6.62213 26.9429L6.18298 27.1445C6.05647 27.436 6.42365 27.3344 6.43208 27.4234C6.46975 27.8194 6.10708 28.1005 6.0306 28.2835C5.98504 28.3926 6.0306 28.5906 5.95975 28.7413C5.67916 29.3389 5.16916 29.8314 5.01508 30.4514L4.5613 30.3624L4.69852 30.8157L4.35269 30.773C4.27004 31.5107 3.72685 31.2976 3.59808 31.4051C3.47607 31.5067 3.59808 31.7918 3.28488 31.7082C3.24608 31.3445 3.57616 31.252 3.59359 31.2261C3.65488 31.1349 3.59752 30.9213 3.41647 31.0085C3.09032 31.1654 3.14994 31.8693 3.05828 31.9386C2.7462 32.1741 1.41187 31.6741 1.12341 31.4304C0.927724 31.2648 1.15433 31.065 1.04693 30.9155L0.65782 30.9322L0.513871 30.4848L0.861374 30.6955C0.896798 30.4086 0.633643 30.3699 0.398038 30.3706C0.352492 30.3237 0.418281 29.9317 0.464952 29.8619C0.570665 29.7054 0.846191 29.8786 0.803457 29.6592C0.441335 29.6662 -0.139521 29.2101 0.311444 29.0357C0.169182 28.765 0.238345 28.7142 0.505438 28.6218C0.340121 28.4405 0.479572 28.0243 0.426716 27.9394C0.343495 27.8054 -0.0585493 27.8147 0.00723971 27.5082L0.34462 27.4874L0.194486 26.8027L0.760721 26.8835L0.16862 26.3419L0.508249 26.3789L0.489694 25.76L0.91198 25.5429L0.644326 24.9304L0.195611 24.8381L0.655009 24.7411C0.78715 24.5315 0.645451 23.5206 0.678063 23.2562C0.695495 23.1147 0.808518 22.5952 0.84563 22.4434C0.879929 22.3042 1.0683 22.3907 1.14815 22.3267C1.1757 22.3042 1.45235 21.7147 1.45629 21.6789C1.4844 21.4174 1.03006 20.9278 1.30447 20.492L1.64522 20.5896L1.9944 19.7605L2.32391 20.2992L2.74452 20.1184C2.73496 20.021 2.17604 19.7102 2.04557 19.6861C1.78016 19.637 1.46303 19.9413 1.48047 19.6162L1.79423 19.4101L1.66322 18.853L2.01972 19.1786C2.05626 19.2051 2.16309 19.1035 2.18221 19.055C2.40488 18.4939 1.94887 18.7317 1.97528 18.3733C2.59551 18.1117 2.08213 16.9674 2.97 16.9334C3.20616 16.4392 2.80749 16.3677 2.78725 16.3323C2.71359 16.2019 2.98631 15.6771 3.05378 15.5005C3.08021 15.4318 3.23034 15.4092 3.2444 15.3752C3.2714 15.3094 3.17805 14.7829 3.33887 14.59L3.59077 15.0958C3.82076 15.2568 3.71954 14.1594 3.98213 14.026L3.74991 13.9307C3.859 13.3563 4.46965 13.4031 4.56468 13.2524C4.74687 12.9643 4.37968 12.5157 4.51858 12.1237C4.62709 11.8177 4.92568 11.7646 5.02127 11.592C5.11911 11.4153 5.1118 11.0776 5.24168 10.8092C5.42332 10.4339 5.69546 10.3756 5.83885 10.1528C6.11269 9.72669 5.83997 9.16091 6.64463 9.3041L6.40397 9.03102L6.61708 8.62112L6.94884 8.71003L7.02362 8.00974L7.36549 8.10731L7.65959 7.28C7.9413 7.29098 7.59154 7.86368 8.02002 7.71992C7.99976 7.40067 8.1038 7.17493 7.76079 7.10046C7.88224 6.7356 8.22188 6.89147 8.28543 6.85741C8.53114 6.7229 8.81455 5.14392 8.84772 4.80446C8.88034 4.46846 8.73807 3.63307 8.79711 3.35422C8.80949 3.29592 9.30712 3.0777 8.80949 2.70301C8.43612 2.82426 8.4721 3.43678 8.22525 3.3115C8.20501 3.30112 8.23256 3.18739 8.20727 3.17411C7.48583 2.79365 8.23706 3.60421 8.13304 3.77683C7.5893 3.79819 7.25922 4.536 6.91679 4.69477C6.7554 4.76982 6.52711 4.66418 6.49956 4.68726C6.43826 4.73864 6.56085 5.18144 6.36236 5.27208C6.16724 5.28363 6.21335 4.2508 5.93108 4.60701C5.8934 4.65435 6.16498 5.4193 5.29511 5.34078L5.48967 5.7859L5.8158 5.53939L5.88271 5.76397C5.53184 5.9337 5.0702 5.82574 4.83514 6.17501L4.54332 5.96083L4.56805 6.42211L4.10135 6.10227L4.11372 6.55258C3.91354 6.59242 3.71786 6.69056 3.51543 6.7177C3.2354 6.75579 3.39509 6.69461 3.39229 6.60397C3.39004 6.52371 3.4249 6.06878 3.43839 6.04454C3.48282 5.96486 4.45503 5.50243 4.64172 5.72355C4.58773 5.45048 4.38474 5.24726 4.66028 5.02962L4.79298 5.2617C4.85933 5.26978 4.92343 5.24379 4.98584 5.22358C5.03476 5.208 5.58132 4.88182 5.60719 4.85642C5.72808 4.73634 5.16352 4.77501 5.36484 4.52734C5.44074 4.43382 5.98224 4.26582 6.14306 4.36339L6.11213 3.78722L6.60527 3.77106C6.67837 3.1435 6.99888 2.78787 7.62584 2.76709C7.45546 2.04083 7.86032 2.2019 8.13247 1.86358C8.34053 1.60437 8.593 0.704331 8.82186 0.497072C8.99223 0.342928 9.4117 0.281155 9.56015 0C9.85986 0.564042 10.0347 0.300206 10.5279 0.416826ZM8.42263 2.83984C8.43949 2.62334 8.40069 2.44091 8.17408 2.39242L8.1994 2.85312L8.42263 2.83984ZM17.5015 4.27621C17.1034 4.48925 17.0753 4.13592 16.7689 4.0245C16.0293 3.75605 14.5978 4.09782 13.8578 4.25715C13.5592 4.32125 13.5435 4.69419 13.1251 4.29757C13.1988 4.81312 12.6073 4.94186 12.2401 5.16182C12.172 5.20282 12.1726 5.35984 12.1462 5.37485C12.059 5.42507 11.3747 5.2871 11.0497 5.63464C10.9226 5.7709 11.0637 5.93715 10.9805 6.104C10.881 6.30376 10.4525 6.58722 10.3845 6.77485C10.3215 6.9469 10.4677 7.06178 10.47 7.16282C10.4716 7.26499 10.1039 7.19398 10.2613 7.47341L10.4874 7.51786C10.051 7.85963 10.2732 8.00109 10.4193 8.44042C10.0139 8.63094 10.1185 9.10549 10.2478 9.50674C9.64788 9.73766 10.4756 9.79251 10.29 10.0153L9.85087 10.2168L10.1916 10.2544L10.1449 11.3438L9.80476 11.4344L10.0572 11.8801L9.71872 11.9015C9.67711 12.1815 10.06 12.3483 10.0465 12.5856C10.033 12.8229 9.72716 13.283 9.70636 13.5878L9.93127 13.6802C9.79407 13.8026 9.64394 14.5975 9.65799 14.7436C9.69623 15.1414 10.1927 15.012 10.1337 15.2869C10.0809 15.5305 9.8773 15.5068 9.85143 15.2476C9.34311 15.8064 9.62708 15.7885 9.59389 16.4542C9.57871 16.7637 9.21266 17.0957 9.89922 17.3456L9.81712 17.6776C10.1022 17.5747 10.3924 17.916 10.561 17.9286C10.8568 17.9506 11.4388 17.5869 11.6407 18.032L11.1987 18.1741C11.8594 18.3173 11.7132 17.8906 12.0084 17.659C12.5207 17.2573 12.691 17.4859 13.1454 17.7099C13.3709 17.5656 13.124 17.3445 13.2741 17.1856C13.4187 17.0326 14.1811 16.7422 14.4499 16.5576C15.1489 16.0784 15.85 15.3273 16.4057 14.6824C16.5788 14.4815 16.8369 14.3626 16.9325 14.0774C17.3946 14.2685 17.3935 13.5289 17.5869 13.1346C18.2173 11.8518 18.5165 11.2878 18.7885 9.8641C19.0439 8.5299 19.1097 7.14203 18.5378 5.85229C18.2713 5.25072 17.7349 4.8824 17.5015 4.27621ZM8.47042 7.69626C8.19432 7.65642 8.17071 7.94277 8.04701 8.12578L8.22244 8.2857L8.47042 7.69626ZM8.4288 8.9704C7.99021 8.95539 7.96492 9.40166 7.86426 9.53963C7.68095 9.79134 7.32613 9.89354 7.38293 10.4189L7.03149 10.1504C7.32783 10.0356 7.25584 9.91085 7.22549 9.61931C6.65476 9.92528 7.12484 10.7145 6.63394 11.1007C7.24911 11.3928 6.46076 11.4858 6.43152 11.5175C6.38034 11.5735 6.60583 11.8455 6.55522 11.9517C6.54567 11.9725 6.31794 12.0637 6.21559 12.2467C6.07952 12.4915 6.04634 12.764 5.93388 12.9747C5.7545 13.3095 5.43119 13.5093 5.43007 13.9902C4.68839 13.9146 4.97685 14.2621 4.68445 14.5669C4.57199 14.6841 4.27623 14.7494 4.25935 14.7788C3.96527 15.3053 4.78061 14.9191 4.72381 15.2574L4.57762 15.5397L4.17445 15.467L4.30884 15.7389L4.09516 16.049L4.43311 16.0853L4.13172 16.7405L3.83932 16.5286L3.92535 17.039L3.59808 17.2341L3.45413 16.6661L3.16792 17.6066L3.82751 17.3374L3.84831 17.6821L3.22866 17.827L3.20448 18.3414L3.44232 18.5147L2.99418 18.5429L3.24834 19.0464L2.80188 19.133L3.15668 19.4563L2.49092 19.6139L2.94639 19.7022C3.00711 20.4763 2.65511 20.533 1.98092 20.5693L2.44031 20.7154L2.00004 20.9128L2.01972 21.2592L2.40376 21.1195L2.47349 21.3464C1.76949 21.5381 1.9944 22.135 2.05232 22.7059C2.12317 23.4058 1.83922 23.3774 1.78804 23.9547C1.76274 24.2411 2.01916 24.6019 1.88925 24.9691L1.21 24.8934C1.14421 25.2606 1.46078 25.0464 1.61935 25.2082C1.72112 25.312 1.7841 26.1088 1.73013 26.2797C1.69639 26.387 1.52095 26.3795 1.51645 26.4522C1.50521 26.6301 1.69639 26.8546 1.66828 27.063L1.08911 26.7514C1.06099 26.9643 1.24767 27.0117 1.29603 27.2022C1.3562 27.4395 1.21619 27.8626 1.26679 28.0474C1.30109 28.1738 1.56144 28.1027 1.63341 28.392C1.77061 28.9427 1.44842 30.6216 2.13836 30.8866C2.74058 31.0003 2.58764 30.6424 2.75464 30.4126C3.37036 29.5651 4.55906 28.1514 4.6136 27.1952C4.61584 27.1514 5.0848 26.6405 5.09999 26.6053C5.2192 26.3286 5.01845 25.5176 5.73708 25.3184L5.71572 25.0984C5.13655 25.0389 5.67242 24.8547 5.70559 24.7757C5.88047 24.3531 5.81242 23.7602 5.90071 23.4237C6.23696 22.139 6.77959 20.6923 7.06072 19.4331C7.13383 19.107 7.16308 18.1256 7.2401 17.9218C7.29015 17.7896 7.57805 17.263 7.65284 17.1626C7.35988 16.5224 7.74674 15.7464 7.83727 15.049C7.97952 13.9532 8.05544 12.8771 8.21626 11.7831C8.23256 11.67 8.14316 11.5268 8.1544 11.4662C8.18252 11.3149 8.3945 11.3218 8.4305 11.2699C8.4513 11.2393 8.26687 10.8068 8.28092 10.5367C8.29442 10.2752 8.47324 10.1204 8.47997 9.94549C8.48898 9.69378 8.27924 9.32198 8.42712 8.97098L8.4288 8.9704ZM20.3817 9.18862L20.1578 9.2019L20.3034 9.76998L20.413 9.76363L20.3817 9.18862ZM6.71042 10.4605L6.36797 10.364L6.38653 10.7093L6.5524 10.6989L6.71042 10.4605ZM5.41263 13.4285L4.97066 13.5711L4.98416 13.7997L5.41263 13.4285ZM18.0362 15.5715L18.0165 15.2262L17.6876 15.3625L17.8703 15.5807L18.0362 15.5715ZM3.98888 16.1725L3.54804 16.315L3.55423 16.4277L4.00239 16.4016L3.98888 16.1725ZM8.12911 21.709L8.20951 21.1264C7.95535 21.2147 7.99189 21.5058 8.01946 21.7154L8.12911 21.709ZM1.6694 23.0178C1.46247 22.9923 1.30503 23.1667 1.35282 23.3821L1.68852 23.3624L1.6694 23.0178ZM1.03006 27.6802L0.656134 27.0093L0.693808 27.7003L1.03006 27.6802Z" fill="#2B2622"/>
<path d="M24.4449 18.13C24.4825 18.1604 24.4997 18.6167 24.4687 18.7196C24.4269 18.858 24.209 18.8801 24.1781 18.9454C23.9172 19.4915 23.8701 19.9815 23.7077 20.4971C23.5897 20.8711 23.4069 21.2279 23.3514 21.6179L23.0954 21.3004C23.1826 21.5726 22.9725 21.858 22.9594 22.0766C22.9516 22.2081 23.1109 22.2796 23.1068 22.414C23.0919 22.9113 22.6079 23.1177 22.6079 23.1636C22.6073 23.2759 22.7821 23.4579 22.7653 23.6902C22.7487 23.9121 22.43 24.4686 22.362 24.7351L22.6114 25.0915C22.3065 25.1025 22.1095 25.5446 22.1113 25.7764C22.1125 25.9207 22.27 26.0131 22.2964 26.1591C22.4293 26.9027 22.0767 26.6289 21.8314 26.911C21.4847 27.3099 21.9143 27.6595 22.4055 27.5433C22.4689 27.7607 22.2181 27.8155 22.2271 28.0246C22.233 28.1639 22.3661 28.7366 22.4234 28.8766C22.7738 29.7334 23.8205 28.3095 24.1148 28.1806C24.2473 28.1225 24.6305 28.222 24.8298 28.0766L24.3553 28.1031C24.3517 27.3835 25.7489 28.0102 25.6092 27.15L25.0935 27.5091C24.8041 27.2379 26.042 26.6891 26.1828 26.7174C26.3277 26.7462 26.4943 26.8977 26.6167 26.9851C26.7389 26.6055 27.5244 26.6697 27.05 27.2385C26.6948 27.6639 26.4978 27.4188 26.4705 27.4393C26.4466 27.4571 26.4025 27.8431 26.3098 27.9903C25.8593 28.7111 25.0082 29.4286 24.2885 29.8883L24.1524 29.6659C24.0474 30.0847 23.5825 30.3574 23.1175 30.3967C22.785 30.4249 22.6138 30.2347 22.5093 30.2358C22.3738 30.2369 22.2671 30.442 22.1041 30.3873C21.3964 30.1505 21.0401 29.7036 20.713 29.1503C20.673 29.0823 20.4916 29.1011 20.4658 29.011C20.4109 28.8179 20.4789 28.5806 20.4157 28.3719C20.3775 28.2459 20.2533 28.1374 20.2349 28.0412C19.9825 26.7323 20.4503 25.5734 20.5231 24.2739L20.8825 24.1876C20.7327 23.1686 20.0386 24.3153 19.702 24.6235C19.1535 25.1263 18.2463 26.0191 17.634 26.3777C17.2967 26.5751 16.7053 26.4678 16.9959 27.0542L16.3997 27.0879V27.5046L15.5929 27.5743L15.7385 28.0086L14.5616 28.1889L14.4708 28.69L13.7553 28.7787L13.7809 29.2223L13.2915 29.0265L12.9537 29.3761L13.0337 29.0612C12.3689 28.7991 13.3053 28.6779 13.6341 28.7859L13.6061 28.3449L13.4479 28.6862L13.0116 28.3775C13.2325 28.1916 13.803 28.2486 13.8322 28.2182C13.8573 28.1916 13.8131 27.9084 13.9814 27.7547C14.1605 27.5908 14.5514 27.8558 14.6982 27.5084L14.6069 27.0791L15.5385 26.6886L15.3959 26.3655L16.6689 25.7294L16.5842 25.4079C17.2413 25.1695 17.6071 24.5323 18.0111 24.094C19.4548 22.5284 20.8717 20.7588 22.0444 19.0179C22.3613 18.5476 22.2085 17.9628 23.1247 17.9718L22.8674 17.6548C23.5705 17.4257 23.6869 17.9761 23.9727 18.0951C24.1226 18.1575 24.4138 18.1051 24.4449 18.13ZM22.5661 22.4366L22.3292 22.4494L22.3493 22.7796L22.5863 22.767L22.5661 22.4366ZM16.2655 26.8734L16.1801 26.4351L16.0185 26.7185L16.2655 26.8734ZM20.7745 26.3007L20.2981 26.3257L20.3191 26.6559L20.4957 26.646L20.7745 26.3007Z" fill="#2B2622"/>
<path d="M33.8803 16.2359C33.9287 16.2669 33.9563 16.4415 34.0386 16.4847C34.3664 16.6562 35.2003 16.486 34.8635 17.1768C35.1487 17.2541 35.1019 17.3989 35.1024 17.7037L34.1224 17.037L33.8653 17.4159L33.793 17.068C33.5163 17.1927 33.1024 17.1951 33.0003 16.8607C32.8653 17.3223 32.3642 17.3028 32.028 17.5266C31.2125 18.0698 30.7163 19.5309 30.2397 20.394C30.0314 20.7717 30.0835 20.3028 29.9813 20.9632C29.8963 21.5125 29.9247 21.8288 29.4352 22.0205C30.0431 22.6664 29.1536 23.6 29.1224 24.1372C29.1058 24.4237 29.5864 25.5957 29.7152 25.9413C29.7858 26.1298 29.7541 26.3519 29.8442 26.5586C30.7336 28.5999 32.5775 26.8671 33.7925 26.2759C34.4103 25.9754 34.3013 26.122 34.8381 25.5672C35.2386 25.153 35.1808 25.282 35.5658 25.01C35.828 24.8252 36.4586 24.0757 36.4736 24.6834L36.5714 24.434L36.7992 24.602C36.5907 25.148 36.6435 25.746 36.1603 26.1656C36.0525 25.8445 35.9181 25.8786 35.6503 26.0136C35.3575 26.4053 35.8592 26.0386 35.8763 26.0623L35.888 26.3032C35.6447 26.3032 35.6341 26.566 35.4698 26.7453C35.4363 26.7813 35.1997 26.6584 35.1013 27.2071L34.8691 26.9796C34.7119 27.072 34.7269 27.4624 34.5741 27.6237C34.4519 27.7533 34.2936 27.6528 34.1819 27.7082C34.0853 27.7557 34.0269 27.9552 33.9053 27.9887C33.7952 28.0191 33.6091 27.8725 33.5447 27.9279C33.4087 28.0447 33.5669 28.4644 32.9442 28.1869C32.6547 28.9388 32.1464 28.5597 31.717 28.5202C31.6631 28.5154 31.7298 28.7653 31.5181 28.7892C31.0464 28.8426 30.2442 28.6511 29.8003 28.4624C29.773 28.4509 29.768 28.3111 29.7419 28.302C29.6736 28.2781 29.2219 28.2872 29.0053 28.1741C28.9603 28.1511 28.3759 27.4138 28.3503 27.3591C28.2109 27.0568 28.2069 26.8476 28.3341 26.5397L27.7887 26.5605C27.6447 26.1712 27.6642 25.7394 27.5763 25.3354C27.4847 24.9146 27.0635 24.7917 27.6669 24.4474L27.6575 24.2685L27.1992 23.9887L27.6208 23.5989L27.3698 23.1304C27.7642 22.9949 27.4603 22.8458 27.4952 22.6506C27.6952 21.5277 28.0658 20.7504 28.3658 19.7127C28.4603 19.3861 28.6347 19.1397 28.5914 18.7237C29.2559 19.026 29.3975 17.9925 29.9675 17.7632L29.8541 17.1946C29.9091 17.0948 30.6469 16.7548 30.7487 16.6477C30.8503 16.5407 30.7519 16.3418 30.8714 16.2621C30.9181 16.2311 31.4597 16.0272 31.5231 16.02C31.9653 15.9659 33.5175 16.0024 33.8803 16.2359ZM29.3752 23.0618C29.173 23.0344 29.0203 23.2492 28.9509 23.4517C29.153 23.4791 29.3058 23.2644 29.3752 23.0618ZM35.0887 25.8682C35.2325 25.8226 35.4903 25.4832 35.3936 25.3616L35.0831 25.5167L35.0887 25.8682Z" fill="#2B2622"/>
<path d="M25.4438 11.288C25.5862 11.4403 25.7091 13.3391 25.4218 13.6445L25.3376 13.2932L24.6683 13.6697C25.0317 15.2149 24.2702 13.8863 24.0037 13.4891C24.028 12.6932 23.8566 11.8283 24.3947 11.5643C24.5923 11.4671 24.8957 11.7021 24.8472 11.1992C25.0186 11.6531 25.3781 11.2184 25.4438 11.288ZM24.384 12.7781L24.4066 12.0074L24.1864 11.8788C24.1941 12.2141 24.1648 12.6825 24.384 12.7781Z" fill="#2B2622"/>
<path d="M42.4694 26.818L43.2 27.0486L42.471 27.1247L42.9077 27.6574C42.8362 27.8534 42.0466 27.839 41.8107 28.0358C41.5579 28.2463 41.4534 28.5668 41.2285 28.7996L40 27.5094L40.2797 26.3625C40.975 26.4038 41.3074 26.361 41.0094 25.5996C41.7954 25.6407 43.0042 25.6721 42.4694 26.818Z" fill="#2B2622"/>
<path d="M26.1068 26.3843C25.9943 26.2603 25.7647 26.2535 25.5977 26.2535L26.0522 25.5996L27.1977 26.7647C26.5229 27.7177 26.5599 26.8786 26.1084 26.386L26.1068 26.3843Z" fill="#2B2622"/>
<path d="M3.95924 6.41055L3.67434 7.4609L4.79922 7.67565L3.3582 7.99844C3.49972 7.51687 2.60828 6.26217 3.95924 6.41055Z" fill="#2B2622"/>
<path d="M27.1506 26.5017C27.6154 27.4263 24.4423 27.706 26.0623 25.5996L27.1506 26.5017Z" fill="#2B2622"/>
<path d="M1.6 23.998V25.598C-0.546797 25.588 -0.519827 23.998 1.6 23.998Z" fill="#2B2622"/>
<path d="M4.71037 16.0093L4.79922 17.5125L3.23924 17.5981C3.01713 16.6563 3.74877 15.8959 4.71037 16.0093Z" fill="#2B2622"/>
<path d="M3.19766 7.95674L2.43502 7.99844L1.59766 7.01343L3.1049 6.39844L3.19766 7.95674Z" fill="#2B2622"/>
<path d="M2.66612 20.7992L1.61924 20.3011L1.59766 19.6795L2.4017 19.1992L3.19766 19.6715L2.66612 20.7992Z" fill="#2B2622"/>
<path d="M57.6 27.1992V28.7992L56.0016 27.9891L56 27.2032L57.6 27.1992Z" fill="#2B2622"/>
<path d="M50.9947 27.1656C50.891 27.0621 50.5659 26.9354 50.5485 26.8662L50.7731 26.3331L50.2214 26.3318C50.1334 25.9779 50.5757 26.0659 50.7739 25.9742C50.608 25.4941 50.5122 25.2917 50 25.2602L50.2765 24.6686L50.5096 25.1494C51.0976 25.3232 51.1877 24.8466 51.659 24.9043L51.6765 25.6C52.3622 25.4886 52.2574 26.6134 52.8733 25.9749C52.7664 26.2259 53.932 26.6717 54.0323 26.6771C54.1386 26.683 55.3813 26.3611 55.5528 26.2974C56.0216 26.123 56.4846 25.7232 56.8046 25.5304C56.8467 25.5053 56.997 25.6261 57.0779 25.4387L56.8576 25.3208C57.0714 25.1406 57.1846 24.8776 57.3504 24.6579C57.5467 24.399 58.2189 23.6368 58.3373 23.3595C58.4344 23.1334 58.3594 22.6056 58.6365 22.236C58.8126 22.0016 59.049 22.0664 59.0691 22.0438C59.104 22.0051 58.9739 21.7754 58.992 21.6451C59.0334 21.3482 59.1694 20.9483 59.1805 20.6186L59.6208 20.7382L59.2906 20.4419C59.4349 20.0938 59.7109 20.28 59.7251 20.2568C59.839 20.0682 59.8027 18.8762 59.7322 18.5971L60.065 18.596L59.8429 18.064L60.2866 17.8813C59.9362 17.1744 59.9536 16.3365 60.7275 16.036L60.1758 15.9776C60.148 15.7414 60.3493 15.6736 60.3933 15.439C60.4387 15.1981 60.3635 14.9416 60.4451 14.6619C60.495 14.4912 60.6712 14.3733 60.719 14.2406C60.7826 14.0662 60.4704 13.9574 60.4517 13.9574C60.26 13.9603 60.4011 14.3894 60.2411 14.5518C59.9413 14.8565 59.56 14.675 59.2918 14.9666L59.5101 15.3826L59.1798 15.2642V15.8032L58.5232 15.7419C58.5206 16.5626 58.1651 16.2693 57.9656 16.396C57.7714 16.5192 57.761 17 57.188 16.6912L57.1349 16.2174L56.9198 16.9339C56.4173 17.385 56.124 16.9059 56.0838 16.9315C56.0592 16.947 56.1718 17.2029 55.685 17.2766C54.8989 17.3957 55.3754 16.947 54.8075 16.6954L54.755 16.9298C54.595 16.9238 54.4203 16.9571 54.2622 16.9243C54.1838 16.9083 53.1426 16.4306 53.0909 16.3912C52.9056 16.252 53.2378 15.7765 52.5301 15.7896L52.5254 15.16C52.1965 14.9939 52.1829 14.8381 51.8798 15.1445C51.808 15.0904 51.6008 13.877 51.5438 13.6806C51.4869 13.4843 51.1248 13.7788 51.547 13.2415L51.325 13.0029L51.6571 12.9433C50.9046 12.5762 51.4304 11.7954 51.2155 11.0986C51.5638 11.032 51.389 11.6669 51.7555 11.1391C51.7723 10.7666 51.4848 9.93822 51.5613 9.63711C51.6099 9.4461 51.8533 9.35625 51.9219 9.19735C51.9725 9.07953 51.8197 8.83852 52.0462 8.71772L52.6525 8.95516C52.5792 8.53801 52.1085 8.55587 52.2094 8.12385C53.1744 8.15657 52.7314 7.5734 52.793 7.12769C52.8 7.07652 53.221 6.29697 53.2696 6.22854C53.7514 5.54836 54.2907 6.00954 53.5376 6.34041C53.9411 6.93489 54.3432 5.83222 54.0907 5.3865L54.5323 5.50433L54.4688 5.02887C54.5744 4.8075 54.8885 4.84796 54.9862 4.71348C55.2181 4.39511 54.8288 4.20529 55.6357 4.43201C55.5885 3.66198 56.5099 3.76255 56.6362 3.24602L56.857 3.3091L56.8538 3.64234C57.151 3.94822 57.1912 3.52154 57.3026 3.43466C57.8166 3.03596 57.8051 3.44121 58.1262 3.47394C58.6118 3.52273 58.4928 3.03298 58.516 3.00562C58.5472 2.96873 58.8872 3.12522 59.0186 3.13058C59.2336 3.13951 59.4621 3.03834 59.635 3.06988C59.9083 3.11927 60.2534 3.54594 60.6168 3.48287C60.0936 4.23801 60.8971 3.7215 61.1672 3.9006C61.5246 4.13804 61.4794 4.63076 61.5085 4.6635C61.5453 4.70455 61.8077 4.63671 61.9475 4.73014C62.0434 4.79382 62.055 5.22286 62.2739 5.02767C62.3464 4.9634 62.3024 4.55817 62.8171 4.65218L62.8851 4.31359C63.6693 4.46831 63.3035 5.45732 64.2664 5.03006C64.2515 5.2175 64.0042 5.2187 63.8707 5.37639C63.705 5.57217 63.5477 5.92743 63.9342 5.86198C63.8507 5.43471 64.0922 5.51801 64.3758 5.38591C64.4917 5.66084 64.1518 5.99407 64.175 6.1357C64.1958 6.26126 64.403 6.37314 64.385 6.62961C64.3739 6.78017 63.9109 7.42284 63.716 7.41214L63.7147 7.58708L64.0475 7.8275C64.0526 8.15598 63.6603 8.18454 63.6142 8.2619C63.5787 8.3214 63.6952 8.50231 63.6797 8.64097C63.659 8.83318 63.3773 8.8421 63.7128 9.1926L63.5088 9.20628L63.8182 9.83409C63.5211 10.1191 63.4304 10.3566 63.501 10.7951L63.1616 10.8618C63.0995 11.1974 63.2738 11.0879 63.4926 11.1016C63.4472 11.633 63.5683 11.8359 63.0515 12.1114L63.3838 12.1709C63.2704 12.4411 63.3883 12.81 63.3514 13.0308C63.297 13.3569 63.0651 13.7318 63.0528 13.902C63.0277 14.2562 63.3598 14.3626 62.8262 14.6203C62.9382 15.1987 63.0814 15.9813 62.6086 16.3966L62.9389 16.6917L62.709 16.7637C62.7136 16.9494 62.8554 17.141 62.8126 17.3243C62.7382 17.6462 62.1314 17.8878 62.6197 18.2949C62.2195 18.9619 62.3594 20.0634 62.1456 20.659C62.0706 20.8674 61.7986 20.868 61.7397 21.0554C61.6114 21.4624 61.7629 22.2522 61.3899 22.7632L60.8389 22.5258L60.9218 22.8835L61.1691 22.94C60.9126 23.3779 60.8331 24.1498 60.5605 24.5491C60.4517 24.7085 60.2496 24.7413 60.1693 24.8698C60.0418 25.075 60.056 25.4661 59.8501 25.6856C59.7018 25.844 59.4557 25.841 59.3482 25.9784C59.2406 26.1158 59.2608 26.4443 59.1539 26.5432C59.0542 26.6354 58.6696 26.6402 58.6282 26.6979C58.6022 26.733 58.7026 26.9419 58.6792 27.0573C58.5874 27.5149 58.1832 27.356 57.8763 27.4858C57.7448 27.5411 57.5797 27.9464 57.2222 27.9803C57.0416 27.9974 56.4925 27.2133 56.3622 27.8773C56.7074 28.2331 56.293 28.7765 55.8578 28.5379C55.6914 28.4462 55.593 27.835 55.4187 28.2022C55.4408 28.8176 54.1075 28.6634 54.0886 28.1189L53.9798 28.4736C53.8245 28.5843 53.0888 27.6726 52.9315 28.357C52.4808 27.7315 51.9674 27.9915 51.4202 27.6328C51.2958 27.5512 51.1254 27.296 50.9947 27.1656L51.325 27.1662V26.9288H50.9941L50.9947 27.1656ZM58.533 4.89735C58.4909 4.60815 58.2778 4.46473 58.0997 4.70158C57.9696 4.87474 58.1082 5.36628 57.7422 5.2657L57.629 4.84737C57.1102 5.9905 56.0994 6.49097 55.3728 7.5371C55.1811 7.81321 54.9259 8.79271 54.4248 8.4791L54.4818 9.07537H53.9826L54.2021 9.78886L53.6502 9.55262L53.9819 10.503C53.6885 10.5476 53.6502 10.2512 53.6496 10.0275L53.0986 10.4446C53.2709 10.6279 53.7429 10.2935 53.6517 10.741C53.1536 10.6731 53.4392 10.8522 53.3285 11.0409C53.2728 11.1355 52.9619 11.5515 52.9878 11.5735L53.7624 11.2188C53.6458 11.6003 53.4878 11.7532 53.0979 11.6943L53.2099 12.1698L53.6477 12.109L53.3738 12.6458L53.0998 12.5863C53.3395 12.7797 53.3674 13.0927 53.4981 13.351C53.8698 14.0841 53.7067 13.8847 53.8821 14.5899C53.8912 14.6274 54.279 15.1909 54.3109 15.2082C54.4741 15.295 54.7051 15.2416 54.8936 15.295C55.0192 15.3307 55.0963 15.4981 55.253 15.5069C55.3262 15.511 55.2466 15.2885 55.4667 15.2546C55.7594 15.2094 56.1389 15.2517 56.4147 15.3837L56.1952 14.9094L57.4677 14.1942C57.4877 14.6048 57.7358 14.6208 58.075 14.6691L57.5246 14.1341C57.9275 13.7883 58.2512 12.7738 58.849 13.0029L58.8443 12.4655L59.6246 12.2882C59.3203 11.752 59.7334 11.3033 60.0114 10.8618L60.2866 11.2176C60.2354 10.829 60.0877 10.5208 60.392 10.2024L60.7288 10.2655C60.3622 9.55916 61.0752 9.45086 61.2339 9.07537C61.2824 8.96111 61.0966 8.85994 61.1134 8.71118C61.1621 8.26844 61.4152 7.80905 61.4819 7.4419C61.531 7.17172 61.2571 6.81468 61.6126 6.51596L61.4502 6.35111C60.9755 6.70756 61.2267 5.68166 60.6406 5.6037L60.7301 5.38889C60.3221 5.5091 60.0547 4.82476 60.0003 4.78012C59.6571 4.50103 58.5944 4.94497 58.5349 4.89735H58.533ZM56.304 5.50612C56.0547 5.46268 55.8403 5.61204 55.751 5.86078C56.0003 5.90422 56.2147 5.75486 56.304 5.50612ZM53.4282 7.64599C53.3485 7.45201 53.1853 7.25206 52.9859 7.29134C53.0656 7.48534 53.2288 7.68527 53.4282 7.64599ZM51.4376 11.6943C51.4784 12.8535 52.0398 11.8823 51.6014 11.6943H51.4376ZM59.7328 12.6464L59.4026 12.5268L59.5133 13.0029L59.7322 12.8225L59.7328 12.6464ZM58.516 13.955L58.6261 13.1213C58.2686 13.2177 58.007 13.9335 58.516 13.955ZM57.1893 15.0274L56.7475 15.085L57.0221 15.2635L57.1893 15.0274ZM62.6086 15.2648L62.3005 15.5331L62.3891 16.0966C62.6494 16.0128 62.5005 15.4795 62.6086 15.2648ZM57.3006 27.1662C57.2074 27.2453 57.175 27.709 57.4645 27.6411C57.8064 27.5602 57.5013 26.9954 57.3006 27.1662Z" fill="#2B2622"/>
</g>
<defs>
<clipPath id="clip0_152_1307">
<rect width="65" height="32" fill="white"/>
</clipPath>
</defs>
</svg>
