<svg width="64" height="32" viewBox="0 0 64 32" fill="none" xmlns="http://www.w3.org/2000/svg">
<g clip-path="url(#clip0_152_1254)">
<g clip-path="url(#clip1_152_1254)">
<path d="M0.869967 22.456C0.872088 22.4417 0.96362 22.3997 0.983964 22.1864C1.01085 21.9056 1.06467 21.2452 0.667281 21.3424L0.812672 21.7813L0.480299 21.5513C0.543778 20.8742 0.883215 21.0696 0.967512 20.974C0.987719 20.9514 0.814447 20.5623 0.809018 20.3777C0.797907 20.0189 1.32391 19.7612 1.03726 19.1585L1.46963 19.0634L1.24798 19.0288L1.28272 18.1193L1.83887 18.1838L1.80148 17.735L1.36852 17.8295L1.73763 17.0015L1.97169 16.9994L2.20228 17.2477C2.20184 16.9902 2.1773 16.6625 2.48499 16.6557L2.19093 16.4548L2.1028 16.6898C1.61182 16.3333 2.18786 16.3583 2.21329 16.1659C2.2269 16.064 2.06487 15.863 2.0852 15.6428C2.10462 15.4318 2.34468 15.2164 2.35866 14.9798L2.7939 15.0452C2.80538 14.6459 2.34242 14.9043 2.46366 14.5028C2.56407 14.1693 2.746 13.9527 3.10184 14.0731L3.25444 13.9286C3.13592 13.4941 2.92565 13.4234 3.1892 12.9797L3.51241 13.0598L3.37478 12.6343L4.21579 12.2057L4.1447 11.9889L3.64328 11.9711C3.9545 11.5029 4.08469 10.2604 4.73308 10.4641C4.50477 9.95813 4.62592 9.83394 5.13444 9.97673C4.86061 9.26253 5.55885 8.40662 5.60412 7.72312C5.6355 7.25077 5.54997 6.54236 5.49318 6.05272L5.95964 5.55126C5.58624 5.14048 5.54744 4.55535 5.85854 4.08542L5.62933 3.99318C5.99567 3.98076 5.8204 3.14998 5.61641 3.14837C5.26927 3.31812 5.23983 3.62791 5.18679 3.97257L5.51719 3.94686C5.52775 4.32563 5.54633 4.50225 5.17528 4.53092L5.1709 5.10846L4.83411 5.02439L4.77826 5.70709C4.58697 5.73833 4.68011 5.47057 4.53028 5.3296C4.43194 5.23682 4.21152 5.21681 4.07484 5.2009L4.05645 4.9801L4.36019 4.76657L4.27782 4.38778L4.60369 4.25438C4.69432 5.22319 5.22822 4.90773 4.9821 4.18151C4.95934 4.11388 4.57739 4.15763 4.8442 3.52064C4.9433 3.28461 5.14652 3.27044 5.23416 3.12877C5.36952 2.90997 5.64924 2.22264 5.83405 1.87452C6.03465 1.49731 5.999 0.903426 6.58844 0.910214L6.62758 1.36007C6.97956 1.16217 7.45463 1.18167 7.20245 1.64934L7.53272 1.62194C7.68105 1.90392 7.28397 2.13741 7.28578 2.26515C7.28647 2.32676 7.70893 2.68973 7.18816 2.78453C7.14965 2.95874 7.3946 2.87533 7.47955 2.98003C7.82543 3.40508 7.20838 3.29261 7.13811 3.52331L7.3689 3.61485C7.49767 3.91381 7.16949 3.9133 7.16796 3.98133C7.16222 4.23079 7.39744 4.38193 7.42353 4.53585C7.45233 4.70255 7.17205 4.91915 7.27371 5.15141L7.58253 4.89952L7.51068 5.3567C8.00659 5.31499 7.99416 4.69478 8.47575 4.99832C8.72226 4.74108 8.69361 4.30445 8.83256 4.04913C8.99445 3.75109 9.83031 3.06155 9.49191 3.9401L10.0404 3.89272L9.92887 3.56851L9.78665 3.51911C10.1758 3.41534 9.88341 3.10223 9.97466 2.89799C10.0003 2.84145 10.6004 2.55704 10.706 2.59205L10.8321 2.80636L11.0618 2.22123L11.1448 2.55414L11.886 2.25413L11.9202 1.94112C12.4682 1.88866 12.5872 1.81106 13.1683 1.86327C13.5428 1.89654 14.1128 1.8886 14.4103 1.98456C14.7321 2.08802 15.3334 2.34332 15.5114 2.63633C15.5747 2.74006 15.4993 2.88917 15.5943 3.02074C15.6824 3.14326 15.8995 3.22353 16.0119 3.38528C16.1831 3.63019 16.1358 4.06998 16.4581 4.02006L16.1672 4.49447L16.4987 4.5213C16.2411 4.93681 17.1164 5.81519 17.0806 6.16854C17.0416 6.55612 16.604 6.12316 16.7173 5.8061L16.5402 6.20619L17.2246 6.60992C17.1189 6.8799 17.0272 7.05984 16.7107 7.05267L16.8347 7.36109C16.619 7.41764 16.5276 7.62697 16.5588 7.85626L16.9679 7.48197C16.9668 7.70727 17.1822 7.97782 17.1308 8.18993C17.0925 8.34771 16.8674 8.36376 16.8375 8.4167C16.8106 8.46486 17.0803 8.91687 16.6889 9.14646L16.918 9.5222C16.4874 9.45246 16.1683 10.3243 16.6608 10.3943L16.6722 10.5636L16.445 10.469L16.6191 11.2461L16.29 11.2746C16.2905 11.4799 16.5599 11.7961 16.2896 11.953C16.0646 12.0839 16.1874 11.6014 15.8893 11.763L16.1824 12.6419L15.6257 12.5779C15.9895 13.2776 15.4023 13.5365 15.3128 14.1865L14.8704 14.1144L15.0777 14.548C14.7904 14.8128 14.5777 15.4422 14.3422 15.6929C14.0012 16.0556 14.0322 15.8708 13.6263 16.4298C13.3716 16.7806 12.8496 17.2319 12.4179 17.1555L12.4897 17.3751L12.1607 17.2982C12.0103 17.9591 11.0958 18.308 10.5533 17.9962L10.4782 18.4548C10.0702 17.8999 9.98266 18.282 9.52873 18.3105C9.42488 18.3172 8.86061 18.2612 8.82686 18.2342C8.76167 18.181 8.78029 17.9536 8.67074 17.8719C8.6342 17.8446 7.92386 17.872 7.77169 17.7827L8.07185 17.4201L7.27381 17.0913L7.5725 16.7243L7.23115 16.5857L7.21436 16.4174C7.57875 16.2886 7.48497 15.3285 7.6029 15.0863C7.73022 14.8241 7.97408 14.88 8.0551 14.7983C8.06788 14.7859 7.93632 14.5528 8.10541 14.4737L8.37856 14.4501C8.44678 14.4866 8.27558 15.3694 8.28081 15.4188C8.2876 15.4872 8.43469 15.5684 8.45536 15.7172C8.47719 15.8731 8.34118 16.0773 8.43298 16.2974C8.50471 16.4689 9.05931 16.4617 8.71322 17.1349L9.07872 16.8804L9.53521 17.2806C9.8285 17.227 10.1134 16.6943 10.2486 16.6266C10.4464 16.5274 10.6235 16.6377 10.8575 16.4421C11.1054 16.2345 11.6511 15.02 11.8448 15.6212L12.198 15.3451C11.9691 14.6729 12.2049 14.6253 12.7495 14.5313L12.8887 13.5964L13.3268 13.4567C13.1061 12.9099 13.4414 12.9687 13.577 12.7595C13.6548 12.6396 13.6165 12.5314 13.6617 12.45C13.773 12.2474 14.0857 12.2215 13.8966 11.7088L14.5629 11.7633C14.4688 11.6475 14.1332 10.8085 14.137 10.7346C14.1411 10.6454 14.3772 10.6408 14.4331 10.4566C14.867 9.02718 14.971 7.48363 14.9466 5.89063C14.9416 5.551 14.7008 5.24021 14.9806 4.82616L14.6503 4.85357C14.7958 4.39851 14.512 4.32685 14.3807 4.00378C14.3119 3.83431 14.3763 3.56619 14.2866 3.43757C14.2081 3.32497 13.7934 3.31949 13.9241 2.76668C13.6594 2.61357 13.7314 3.13925 13.6164 3.01905C13.5414 2.94065 13.5538 2.60516 13.2594 2.71151L13.1205 3.0602C12.9333 2.88284 12.7735 2.70144 12.4893 2.77861L12.5907 3.33231L12.3838 2.9043C11.6584 2.9036 11.9713 3.29131 11.8697 3.49078C11.7947 3.63817 11.0095 3.76824 10.9426 3.84024C10.8808 3.90725 10.9539 4.18838 10.7909 4.28056L10.3889 4.09065L10.27 4.6662L10.0244 4.35017L9.23132 4.81082L9.25255 5.03928L9.59541 5.17602C9.08798 5.15253 9.37969 5.31859 9.32681 5.42669C9.1332 5.8214 8.66823 5.48529 8.45862 6.12583L8.69651 6.32879C8.48056 6.6281 8.35162 6.87746 7.95375 6.67702C8.04789 7.39599 7.50615 7.90227 7.40134 8.60051C7.3748 8.77935 7.50573 9.04474 7.48836 9.13451C7.47219 9.21909 7.29257 9.2182 7.28286 9.30052C7.25566 9.53769 7.50008 9.84589 7.46449 10.1149L7.12774 10.0314L7.40981 10.6323C7.05735 10.9972 7.37897 11.1442 7.37862 11.6507C7.3782 11.9308 7.224 12.1224 7.21165 12.352C7.18709 12.8198 7.3802 13.3543 7.40708 13.6638C7.44512 14.1007 7.15488 14.4562 6.72439 14.481C6.73257 14.6919 7.06035 14.6211 7.17075 14.5539L7.20215 14.997L6.67548 15.2202L7.22808 15.2291L7.28305 15.9022L6.83659 15.8282C7.0809 16.3339 6.90411 16.4465 6.8381 16.8211C6.77022 17.2066 7.00941 17.5447 6.42744 17.5616L6.69399 18.1022L6.28367 18.3226L6.31255 18.8152L6.49879 18.4048C6.63151 18.2077 6.62865 18.5248 6.62522 18.6162C6.60196 19.2921 6.62404 20.0479 6.15255 20.5821C6.76243 21.0527 5.70014 21.093 6.29216 21.2501C5.78923 21.546 6.12388 21.5046 6.11964 21.8252C6.11682 22.0699 5.69922 22.6141 5.83258 23.048L5.36375 23.3685C5.79253 23.4491 5.56839 23.8555 5.54189 24.2007L5.08559 24.0149C5.38893 24.4867 5.33158 24.8526 5.19671 25.3623L4.85112 25.1664C5.14118 25.7303 4.82972 26.1828 4.76047 26.7573L4.38743 26.225L4.32497 26.6689C4.54406 26.7127 4.71287 26.7694 4.67467 27.0472C4.6208 27.4418 4.13374 26.8336 4.02827 27.2191C3.93468 27.5609 4.60196 27.1756 4.49267 27.515C4.4585 27.6221 4.19023 27.9033 4.09833 28.1132C4.00644 28.3233 3.93404 28.7805 3.84487 28.9104C3.72621 29.0841 3.43051 29.0293 3.33073 29.1709C3.1578 29.4162 3.41442 30.0498 2.64418 29.7825L2.4989 30.1209L2.27332 30.059L2.25193 29.8022C2.01352 29.8647 1.64136 29.9398 1.40551 29.9602C0.792311 30.0132 1.19473 29.5122 1.12046 29.4497C1.10499 29.4363 0.872088 29.492 0.724019 29.3723C0.498295 29.1893 0.678195 28.6962 0.271759 28.5588L0.358711 28.3225L0.796343 28.231C0.57193 27.8979 0.0906332 27.7702 0.164322 27.2688L0.610775 27.3429L0.582652 27.0052C0.336951 27.1792 0.208296 27.1003 0.0216841 26.8827L0.444834 26.677L0.088451 26.3711L0.502462 26.049C0.51063 25.6364 0.154107 26.2574 0.154155 25.8534C0.153992 25.5065 0.303816 25.4681 0.433604 25.2091L0 25.3027C0.10675 24.9725 0.179778 24.9606 0.524992 24.9732C0.287703 24.5518 0.407725 24.1821 0.384047 23.7783C0.380499 23.7158 0.190761 22.466 0.531586 23.0493C0.608915 23.1818 0.460386 23.2756 0.517329 23.3623C0.604625 23.495 1.15375 23.7606 1.31954 23.8476C1.30447 24.1175 1.42028 24.4601 1.38355 24.7088C1.37082 24.7948 1.19839 24.7939 1.18213 24.8772C1.16163 24.9827 1.38715 25.3955 1.33746 25.4689L0.882157 25.2818C1.05787 25.7268 1.50953 25.8964 1.42219 26.4795C1.3927 26.5234 0.976719 26.2711 0.880224 26.5851C0.795087 26.8629 1.24315 26.658 1.37654 26.9859C1.47515 27.2279 1.50784 28.8276 1.62918 28.9512L2.13446 28.6638C1.98778 28.2226 2.20849 27.5828 2.74997 27.8359C2.91853 27.4122 2.38472 27.2247 2.46799 27.0704C2.47373 27.0596 2.62594 27.0766 2.6797 26.9723C2.75337 26.8291 2.82925 26.3935 2.86456 26.36C2.92239 26.3046 3.17449 26.5589 3.28075 26.2628C3.17745 26.0505 2.77815 26.2508 2.8215 25.9686C2.86272 25.7008 3.22955 25.1639 3.54125 25.3909L3.25803 24.6239L3.81519 24.6871L3.46044 24.1158L3.60913 23.3606L3.92173 23.32L3.68824 23.0702C4.06837 22.3543 4.16232 21.5722 4.32815 20.8042C4.34728 20.7154 4.49244 20.6344 4.51264 20.5586C4.56969 20.3481 4.29807 19.7531 4.70573 19.4612L4.48326 19.4231L4.46782 19.2575C4.97687 19.0088 4.58044 18.5139 4.69512 17.9076C4.71349 17.8098 4.87866 17.8097 4.88947 17.7273C4.94319 17.3243 4.85135 16.6131 4.86547 16.1722L5.19753 16.0801C5.23191 16.0483 4.97696 15.8129 4.9604 15.687C4.9005 15.2332 5.30818 14.2582 5.31729 14.0955C5.32578 13.9454 5.18535 13.6656 5.18758 13.4204C5.19262 12.8773 5.23744 12.3144 5.2797 11.7737C5.13512 11.6431 4.58398 12.7132 4.51938 12.8461C4.4099 13.0705 4.48691 13.2987 4.32311 13.5075C4.0764 13.8219 3.91812 13.3609 3.87819 14.3472C3.87251 14.4846 3.98684 14.6303 3.9831 14.7512C3.98037 14.8312 3.81564 14.8432 3.78206 14.931C3.72949 15.069 3.76401 15.2913 3.68043 15.3952C3.60034 15.495 3.32606 15.5181 3.17928 15.6394C3.03249 15.7608 3.03578 16.1254 2.65645 16.0745C2.65346 16.2841 3.04444 16.2028 3.10528 16.2699C3.22878 16.4064 2.97077 17.308 2.88209 17.5233L2.1017 17.3667L2.55921 17.5535L2.48439 18.0613C2.48896 18.1028 3.02138 18.1281 2.52535 18.4601C2.52523 18.1868 2.40685 18.2247 2.17662 18.2661L2.42955 18.5238C2.32401 18.6693 2.34899 19.2012 2.31194 19.2673C2.2595 19.3606 2.10716 19.349 2.06632 19.482C2.00813 19.6722 2.17389 20.4884 2.14312 20.5301L1.58693 20.465L1.57136 21.598L1.73415 20.906C1.92789 20.8774 1.96386 20.8319 1.97152 21.0564C1.97395 21.1389 1.81403 22.2034 1.79279 22.2602C1.7404 22.4004 1.56658 22.4891 1.42648 22.5181L1.7012 23.1039L1.49994 23.5195L0.842839 23.47L1.27126 23.3209C1.33649 22.9102 0.924243 23.2004 0.813165 23.1336C0.85737 22.8949 0.834144 22.7024 0.8679 22.4511C0.707663 22.4705 0.579558 22.5109 0.472096 22.3748L0.392777 22.0394C0.591838 22.1211 0.890823 22.1757 0.8679 22.4511L0.869967 22.456ZM16.5835 6.83958L16.3652 6.85845L16.3932 7.19439L16.6115 7.17553L16.5835 6.83958ZM5.14609 11.4497C4.86127 11.4127 4.41436 11.2204 4.27823 11.6356C4.57608 11.5635 5.02276 11.8791 5.14609 11.4497ZM13.0898 15.2879L12.9977 14.8449L12.7475 15.1505L12.7614 15.3168L13.0898 15.2879ZM1.31761 22.5309L1.09931 22.5499L1.1367 22.9987C1.34999 22.9198 1.36358 22.7381 1.31761 22.5309ZM0.874082 25.1716L0.764776 24.5027C0.537788 24.709 0.563795 25.0875 0.874082 25.1716Z" fill="#2B2622"/>
<path d="M61.6374 0L61.7758 0.403962L62.1724 0.410993L62.4337 0.048711C62.365 0.746281 63.8108 0.829611 63.9958 1.1353L63.5733 1.46209C63.6034 1.2745 63.078 0.78764 62.9617 0.933803L63.366 1.71151C62.9425 1.64746 62.9282 2.21643 62.6326 2.30829C62.4229 2.37352 62.0277 1.97316 61.6802 2.55753L61.4396 2.34505L61.2958 2.70534L60.7793 2.50914C60.6949 2.95036 60.3768 2.81905 60.2189 2.94844C60.1167 3.03232 60.093 3.3578 59.8093 3.39686C59.6416 3.42007 59.4131 3.09602 59.148 3.358L59.1844 3.1216C58.8245 3.07243 59.0528 3.42325 58.7079 3.51586C58.3782 3.60369 58.1257 3.44168 57.9168 3.45858C57.8842 3.46138 57.6499 4.11917 57.5155 3.49905L57.1618 3.99324L57.0479 3.30618L56.691 3.9257C56.5404 3.93116 56.3755 3.83955 56.2336 3.85414C55.8005 3.89737 55.2158 4.12122 55.0306 4.15817C54.9259 4.17886 54.7036 4.03168 54.5231 4.22121L54.7083 3.74101C54.3251 3.65606 54.0548 3.98594 53.7617 4.05374C53.4087 4.13544 52.9607 3.83209 52.959 4.47151C53.167 4.52802 53.3747 4.46818 53.5776 4.47219C53.6813 4.47428 53.7688 4.27475 53.7636 4.57943C53.7606 4.75245 53.7702 4.87437 53.6241 4.99576L53.539 4.6541L53.2015 4.68442L53.2521 5.08956L53.5776 5.11729L53.3869 5.53862C54.1018 5.88926 53.305 6.96621 52.8484 7.21739C52.8342 7.64501 53.4754 7.05504 53.5153 7.09986L53.4618 7.72749L53.0118 7.84198L53.0985 8.88213L52.3136 8.94822C52.2502 9.3283 52.5991 9.08175 52.7364 9.25604C52.8736 9.43033 52.7371 9.8016 53.1224 9.81544C53.5911 9.83194 53.8125 9.4452 54.1013 9.3737C54.4267 9.29265 54.1703 9.84823 54.4668 9.69231C54.5594 9.64358 54.6323 9.40459 54.8021 9.33585C55.1262 9.20546 55.3585 9.38607 55.5798 9.35529C55.783 9.32728 55.8313 9.06426 56.058 9.08947C56.0425 9.96277 57.8633 10.0579 58.0529 10.2224C58.2426 10.387 58.288 11.5162 58.8454 11.2935L58.659 11.7732C59.1825 11.6175 58.921 12.3835 59.5981 12.1586C59.3899 12.5727 59.9761 12.9665 59.9815 13.229C59.9992 14.0261 60.0928 14.8016 60.1344 15.6618C60.1427 15.8292 60.2895 15.9881 60.2692 16.1731L60.0397 16.1348L60.319 16.6894L60.093 16.8282C60.5903 17.5077 60.2424 17.415 60.1526 17.7421C60.0502 18.1163 60.0305 18.225 59.9254 18.5465C59.9083 18.5986 60.0687 18.7865 59.9787 19.0724C59.8786 19.3899 59.5744 19.4481 59.5407 19.511C59.5068 19.5738 59.6619 19.7722 59.631 19.9516C59.5584 20.3757 59.3069 20.5568 59.1505 20.8326C58.8982 21.276 59.0488 21.7587 58.3439 21.5748C58.6353 21.977 58.4203 22.3029 58.0781 22.5756C57.6446 22.9218 57.4178 22.678 57.4848 23.5087L56.7932 23.3368L56.9389 23.7286L56.7868 23.9063C56.2701 23.66 56.4463 23.9898 56.2485 24.2099C56.1715 24.2957 56.0156 24.2266 55.9887 24.2562C55.497 24.7932 55.4413 25.0539 54.5873 25.3442C54.1607 25.4886 53.5158 25.4611 53.1089 25.284L52.9767 25.7613C52.7288 25.7892 52.6714 25.5127 52.6571 25.3218L52.1299 25.5797L52.0337 25.3692L51.2175 25.68L51.1868 25.332C50.9052 25.6738 50.7403 25.4863 50.3746 25.3685C50.0339 25.2587 49.3835 25.0735 49.4343 24.6701L49.3248 24.6795C49.0923 25.5031 48.5929 24.3565 48.3627 24.0041L48.2456 23.9578C48.2234 23.9761 48.2791 24.0749 48.2577 24.1105C47.9126 24.6812 48.0128 23.5464 47.9808 23.5172C47.962 23.5002 47.7491 23.5465 47.6459 23.4822C47.1494 23.1731 46.9656 22.6654 46.8516 22.1105L47.2836 21.9458C47.3641 22.1512 47.3566 22.4885 47.6593 22.3793L47.6066 21.7463L47.8264 21.6691C47.8774 21.9962 48.6278 21.8675 48.57 22.4169L48.8854 22.157C48.7561 23.2337 49.6875 23.0014 50.0915 23.3615C50.2901 23.5392 50.1045 23.8648 50.3428 24.0083L50.2285 23.3218C50.6613 23.193 50.7501 23.8793 51.2679 23.5804L51.1847 23.9349C51.5911 24.0708 51.603 23.6563 51.776 23.6418C52.1018 23.6143 52.422 23.8641 52.7578 23.8007L52.7302 23.453C53.3414 23.6514 53.9689 22.8597 54.5274 22.602L54.6101 22.941C55.1774 22.8843 55.132 22.4205 55.226 21.9727C55.8014 21.9992 55.5663 21.7664 55.6986 21.5823C55.9061 21.2932 56.8589 20.0847 56.9348 19.9223C57.0106 19.7598 56.8939 19.4447 57.0076 19.2075C57.0709 19.0758 57.3122 19.0387 57.3822 18.8616C57.5196 18.5141 57.2568 18.4495 57.8328 18.1851L57.5708 17.743L57.9036 17.6543L57.5341 17.282L57.8069 16.7506C57.5264 16.8341 57.5787 16.1601 57.6301 15.9823C57.6815 15.8045 57.8436 15.7934 57.8532 15.717C57.8959 15.3677 57.7227 14.9133 57.8697 14.5178L57.5439 14.5384C57.4285 14.2476 57.5625 13.8783 57.5029 13.6054C57.4417 13.3257 57.0906 12.9145 56.9892 12.6266C56.9173 12.4222 56.9462 11.9416 56.9225 11.9151C56.7612 11.7307 56.3017 11.9007 56.3275 11.1783C55.5507 11.0005 54.9685 11.429 54.1901 11.1134L54.3307 11.4486C54.1619 11.501 53.6267 11.4477 53.5552 11.5324C53.5249 11.5688 53.5913 11.7504 53.5462 11.8322C53.501 11.9147 53.0982 12.0652 52.9338 12.2243C52.6861 12.4632 52.215 13.0833 51.9463 13.3991C51.6924 13.6979 51.4914 14.0021 51.2896 14.3383L50.714 14.2054L50.8721 14.7734C50.6227 14.7531 50.5464 14.3752 50.3806 14.2923C50.0399 14.1222 49.6516 14.5484 49.6553 13.9757L48.8646 13.7259C49.2028 13.4337 49.0276 12.9602 49.116 12.6908C49.1603 12.5567 49.3427 12.5444 49.4023 12.377C49.5637 11.9244 49.5341 11.005 50.2278 11.1068C50.2274 10.8637 50.1447 10.5986 50.1702 10.3596C50.1758 10.3062 50.4446 9.38135 50.4725 9.33647C50.5758 9.1699 50.8137 9.20055 50.9732 9.18035L50.4918 8.81534L51.1247 8.29472L50.6675 8.2202L51.1017 8.00527L50.8269 7.39671C51.229 7.20375 51.0618 6.95642 51.1691 6.73018C51.2519 6.5555 51.4765 6.4314 51.5068 6.2595C51.5908 5.78048 50.8177 5.07128 52.0036 5.25271L51.9748 4.90733L51.5366 5.06095L51.8104 4.49747L51.5335 3.66573L51.8784 3.75168L51.5578 2.6189C51.7191 2.47115 52.2829 2.43292 52.3142 2.40753C52.3608 2.36919 52.3352 2.17013 52.4926 2.09079C52.7446 1.96375 53.2529 1.96693 53.5416 1.98155L53.2339 2.35484L54.4696 2.24806L53.9825 1.82654L55.1241 1.96058L55.0869 1.49844C55.7438 1.44632 55.2162 2.15563 55.2561 2.1801L55.5977 2.08369L55.6587 1.56479C56.1986 1.71592 56.6099 1.60593 57.1373 1.66913L56.8749 1.22819C57.507 1.04619 57.5 1.26899 57.9228 1.60243L57.9313 1.0235L58.5035 1.21022L58.7102 0.837532L58.806 1.34987L59.0355 1.38821C59.0362 1.00191 59.4786 0.913651 59.7694 0.839656L59.7609 0.51872C59.983 0.429131 60.2806 0.618072 60.4736 0.55079C60.6293 0.496627 60.7155 0.226837 60.8122 0.194037C61.0963 0.098531 61.2233 0.762315 61.302 0.728183C61.645 0.57815 61.113 0.30067 61.1985 0.157755L61.6374 0ZM50.7522 10.5961L50.378 10.1643C50.3571 10.4453 50.4715 10.6506 50.7522 10.5961ZM59.7103 13.5461C59.7227 13.3281 59.6781 13.1458 59.4494 13.1033C59.437 13.3214 59.4816 13.5037 59.7103 13.5461ZM49.181 24.3454L48.9574 24.3646L48.9958 24.8256L49.2194 24.8062L49.181 24.3454Z" fill="#2B2622"/>
<path d="M31.3398 14.1944L31.4424 14.3859C31.7107 14.2413 31.7602 14.119 32.0905 14.2124L32.1878 14.6569L32.2782 14.3097C32.959 14.6538 33.6463 14.8799 34.009 15.5789C33.8917 15.8001 33.4705 15.546 33.6821 15.9459C33.8281 16.2222 34.1447 15.9428 34.1632 15.9622C34.2995 16.2666 33.6246 16.5087 33.6199 16.6334L33.9802 16.659C34.0295 16.9771 34.0482 17.4034 33.6986 17.5914L33.5955 17.2501L33.1898 17.2943L33.5015 16.7021L33.0057 16.5162L32.914 16.8641C32.8676 16.1888 33.1857 15.6086 32.3614 15.3234L32.2564 15.5663C31.5516 15.2839 31.6796 15.661 31.4902 15.7846C30.8877 16.1777 30.4292 16.6793 30.1274 17.3404C29.7018 18.2721 29.4325 19.5473 29.3097 20.4755C29.2918 20.6093 28.8613 20.9841 28.8378 21.4752L29.2002 21.4991C29.2896 21.7047 29.078 21.8632 29.066 22.0224C29.0313 22.4749 29.2841 23.3617 29.1853 23.7436C29.1328 23.945 28.8149 23.8261 28.9385 24.1316L29.2864 23.9885C29.4596 25.011 29.5123 26.9886 31.0793 25.9895L30.9491 26.5677C31.6821 26.4386 31.2277 25.7231 31.6335 25.377C31.9512 25.5004 31.6828 26.0277 32.0979 25.9021L32.0429 25.2269L32.5479 25.5221L32.5035 24.9596L32.8565 25.0376L33.1335 24.5647L33.3387 24.9352L33.5887 24.9783C33.4443 24.5113 33.8599 24.6154 34.1359 24.4122C34.3239 24.2741 34.4051 24.0179 34.6501 23.978L34.8017 24.3065L35.6775 24.0038C35.7509 24.4514 35.4366 24.7147 34.9988 24.516L35.1416 24.9446L34.3369 25.2552L34.589 25.402C34.5575 25.5595 33.9222 26.1747 33.738 26.3274C33.6258 26.4205 33.4025 26.4324 33.2472 26.5525C32.9959 26.7467 32.922 27.299 32.4246 26.8947C32.6351 27.3011 31.6491 27.5844 31.3221 27.6313C31.0225 27.6736 29.7496 27.6322 29.4355 27.5799C29.213 27.5428 27.6423 26.7059 27.6045 26.6133C27.5733 26.5354 27.7045 26.3663 27.6578 26.246C27.5957 26.0879 27.3105 26.0932 27.2241 25.9816C27.0829 25.7997 27.1433 25.3824 26.9718 25.1624L27.3099 24.8409L26.7213 25.0035C26.7618 24.4836 26.7185 24.102 26.5976 23.5989C26.5743 23.501 26.6387 23.1942 26.4022 23.3303C26.2117 23.4398 26.2225 23.7766 26.1157 23.8931C25.6581 24.3917 25.6207 24.4828 25.2192 25.0266C24.9713 25.363 23.2465 27.0472 22.9193 27.1991C22.6789 27.3107 21.2932 27.6062 21.1437 27.5279L21.2461 27.2938C20.7413 27.4355 19.5251 26.9316 20.2168 26.5308C19.5731 26.3714 19.7575 26.2334 19.5546 25.9388C19.484 25.8366 19.3203 25.8615 19.3124 25.8037C19.2954 25.6798 19.4193 25.4517 19.3969 25.2403C19.3408 24.7191 19.0485 24.1393 19.3803 23.7088L19.0215 23.7365C18.8986 23.3453 19.2425 22.9888 19.251 22.6265C19.2664 21.9226 18.7918 21.2094 19.117 20.5536L18.3906 20.5546C18.4378 20.3172 18.4823 20.0994 18.7699 20.0139C19.1405 19.9036 18.7204 20.2735 18.9826 20.3951C19.1166 20.4572 19.2092 20.4401 19.3462 20.4198C19.1994 19.7271 19.6704 19.7898 19.8633 19.5142C20.1978 19.0353 19.7647 19.133 19.5574 19.0413C19.2551 18.9067 19.4946 18.1342 19.9938 18.7726L20.2684 18.4657L19.7875 18.4522L20.1402 17.6278L20.4757 18.0517L20.3333 17.6231L20.5487 17.4802L20.1621 17.1737C20.4333 17.0572 20.9157 17.1624 20.9811 16.8753L20.6038 16.6804C20.9805 16.6944 21.2389 16.7946 21.3628 16.385L21.8699 16.6839L21.9697 16.4489C22.1378 16.8679 22.4941 16.7401 22.5231 16.7608C22.8783 17.0162 22.3475 17.2805 22.2901 17.4455C22.2366 17.5994 22.4147 17.7605 22.3364 17.8932C22.2872 17.9763 22.0653 17.9813 22.0429 18.1104C22.0246 18.2158 22.1442 18.567 22.1013 18.8618C22.0047 19.5262 21.8027 20.228 21.663 20.8875L21.0789 20.9529C21.3713 21.1556 21.3267 21.3803 21.4197 21.5765C21.4298 21.5978 21.6184 21.5827 21.6263 21.6484C21.6502 21.8347 21.4093 22.9502 20.9903 22.7765C21.0082 23.041 21.3496 22.6694 21.3752 23.0263C21.4117 23.5452 21.0869 23.5456 21.0771 23.5782C21.0609 23.6313 21.2263 23.8502 21.2117 24.0444C21.1919 24.3134 21.0027 24.756 21.0462 24.9672C21.0532 25.0001 21.4415 25.1238 21.5113 25.4423C21.5763 25.7363 21.2888 26.0921 21.7144 26.448C22.2351 26.4819 22.3068 25.9025 22.5331 25.833C22.6724 25.7903 22.8901 25.91 22.9233 25.8867C22.9393 25.8756 22.9897 25.6493 23.0821 25.5426C23.567 24.9832 24.1587 24.4934 24.5792 23.8844C24.7697 23.6087 24.6927 23.2857 25.0146 23.3361L24.9235 23.6828L25.5207 23.6313L25.4925 23.2932L25.0121 23.2785C25.376 23.0728 25.3971 22.7402 25.6254 22.4055C25.8993 22.0038 26.3198 21.9057 26.2274 21.2951L26.6492 21.2661L26.5852 20.4764L26.7911 20.7981C27.2098 20.3317 26.8024 20.0224 26.749 19.5537L27.0993 19.62L27.4372 19.1556L27.1847 19.1053C27.1808 18.9212 27.1919 18.7068 27.2459 18.5308C27.3146 18.3064 27.7664 17.7367 27.7801 17.6845C27.8718 17.3378 27.5533 17.1468 28.2279 17.042C27.9042 16.4599 28.1767 16.5924 28.2906 16.3885C28.47 16.0677 28.4401 15.8109 28.9547 15.7228L28.845 15.5342L29.5202 15.3385L29.776 14.64C30.1052 15.301 30.8758 13.9865 31.3398 14.1944ZM27.9979 18.6514C28.0128 18.4384 27.9667 18.2608 27.7235 18.2211C27.7086 18.4341 27.7547 18.6117 27.9979 18.6514ZM27.6583 18.9071L27.5 18.4685L27.3833 18.4786L27.4206 18.9276L27.6583 18.9071ZM26.9952 23.9578C27.2935 23.9656 27.6271 23.9106 27.5638 23.5693C27.4494 23.6501 26.8452 23.9072 26.9952 23.9578Z" fill="#2B2622"/>
<path d="M16.3256 21.256L16.2722 21.6285C16.5969 21.5986 16.6878 22.1638 16.5931 22.3553C16.5595 22.4228 16.2847 22.5042 16.2109 22.5921C16.0554 22.7779 16.2116 23.0781 15.6858 23.0244C15.9272 23.3507 15.3802 23.8214 15.1143 24.0097C14.6841 24.3139 14.8215 23.9227 14.734 23.9636L14.522 24.3617L14.4413 23.9888L14.4392 24.5588L14.1394 24.5228L13.9613 24.1254L14.0799 24.9712C13.6034 25.0847 14.205 24.4029 13.7488 24.5237C14.0025 25.1278 13.1949 25.7264 13.0925 25.0098C13.0043 24.3929 13.4964 24.6436 13.7211 24.41C13.8198 24.3082 13.6851 24.0547 13.7978 23.9916C14.0058 23.8751 14.3465 24.1188 14.5857 23.4916C14.9233 22.6071 15.2379 22.4733 15.7434 21.758C15.8287 21.6368 15.7541 21.173 16.3256 21.256ZM16.162 21.6509C15.8605 21.6302 16.013 21.7375 15.9883 21.9014C15.8745 22.6653 16.355 22.2045 16.162 21.6509ZM15.5817 22.9373L15.4044 22.5732C15.1555 22.7647 15.3148 22.978 15.5817 22.9373ZM15.2067 23.1611L15.0624 23.1745L14.9346 23.4211L15.1992 23.6368L15.3436 23.6244L15.2067 23.1611Z" fill="#2B2622"/>
<path d="M38.9066 23.1947C38.9226 23.1985 38.9461 23.3359 39.1609 23.3107L39.4282 23.6766C39.2123 23.6883 38.9392 23.8038 38.9531 23.5631L38.7814 23.6939C39.5257 24.0998 39.1491 24.1039 39.0551 24.5432C39.0133 24.739 39.2133 25.0823 38.8936 25.0477L38.7609 24.5916L38.558 24.9201C38.4454 24.8007 38.1484 24.8437 38.0567 24.7904C37.9312 24.7172 38.0176 24.4717 37.6287 24.4862C37.4792 24.0967 37.7757 23.324 38.2672 23.1861C38.3662 23.1584 38.4628 23.2696 38.6005 23.2734C38.6979 23.2758 38.792 23.1687 38.9066 23.1947ZM39.0922 24.0964L38.7238 24.1282L38.7366 24.2818C38.9102 24.287 39.0557 24.2541 39.0922 24.0964Z" fill="#2B2622"/>
<path d="M22.5169 13.0016L22.3488 13.0148C21.7075 12.9087 21.0799 11.6892 21.6894 11.3722C21.8455 11.2912 22.0595 11.3315 22.1753 11.2845C22.2745 11.2441 22.2387 11.1279 22.3253 11.1034C22.5745 11.0331 23.2149 11.1089 23.2873 11.3364C23.127 11.7104 22.5487 12.2568 23.1618 12.4664C22.8828 12.7031 22.4164 12.5761 22.5169 13.0016Z" fill="#2B2622"/>
<path d="M3.85782 5.00021C3.92538 5.02971 3.75533 6.08695 3.37046 6.05256L3.62294 6.33064L2.91322 6.79534L2.59516 6.42145C2.61003 6.74531 2.55616 6.94939 2.18759 7.06201C2.00769 6.53482 2.21825 6.19199 2.78482 5.95927C2.89234 5.91515 3.09082 6.00149 3.12141 5.96755C3.152 5.9336 3.42669 5.33028 3.49635 5.23287C3.58927 5.10318 3.64641 4.98011 3.85782 5.00021Z" fill="#2B2622"/>
<path d="M12.8926 25.385L12.8468 25.8147C12.9123 26.0451 13.3302 26.0429 13.1435 26.317C13.0716 26.4227 11.9514 27.2783 11.8782 27.2694C11.7812 27.2566 11.8611 26.9479 11.7206 27.0176L11.7507 27.3991L11.3945 27.299C11.4077 27.1427 11.7924 26.7789 11.8439 26.7682C11.9447 26.7467 12.0372 26.8881 12.11 26.9812C12.3868 26.716 11.9915 26.4235 12.0401 26.2208C12.0711 26.0905 12.8003 25.2884 12.8926 25.385ZM12.3392 26.0706C12.4102 26.6242 12.6766 26.4434 12.5872 25.9207L12.3392 26.0706Z" fill="#2B2622"/>
<path d="M2.01423 7.11889C1.79256 8.26389 2.84194 8.63793 1.82381 8.98941C1.23673 9.19184 1.43288 8.65109 1.31781 8.55404C1.229 8.48027 0.645374 8.98103 0.34375 8.05691C0.507771 7.51573 1.44882 8.14188 1.49067 8.08398C1.60045 7.93075 1.49201 6.89732 2.01423 7.11889Z" fill="#2B2622"/>
<path d="M50.1076 2.91992L50.2219 4.01824C50.7139 3.69487 51.065 3.85942 51.0663 4.74776C50.3064 4.93571 49.6209 4.3071 49.0898 3.58106L50.1076 2.91992Z" fill="#2B2622"/>
<path d="M19.8817 19.0378L20.2414 20.1337L18.4511 21.0478C18.1471 20.1713 19.6265 18.7772 19.8817 19.0378Z" fill="#2B2622"/>
<path d="M3.81127 8.84384L2.23047 8.01868L4.02646 6.90039L3.81127 8.84384Z" fill="#2B2622"/>
<path d="M5.89312 6.74023C6.05701 7.21382 4.73114 9.08864 4.17969 8.76109L5.89312 6.74023Z" fill="#2B2622"/>
<path d="M35.4812 23.5062C36.2433 24.5998 34.6684 25.6167 33.9102 25.4467C34.0419 25.2383 35.1384 23.0151 35.4812 23.5062Z" fill="#2B2622"/>
<path d="M4.11276 30.6286L3.05172 31.9982L2.26474 31.0941L2.18359 30.1484L4.11276 30.6286Z" fill="#2B2622"/>
</g>
</g>
<defs>
<clipPath id="clip0_152_1254">
<rect width="64" height="32" fill="white"/>
</clipPath>
<clipPath id="clip1_152_1254">
<rect width="64" height="32" fill="white"/>
</clipPath>
</defs>
</svg>
